<svg width="57" height="68" viewBox="0 0 57 68" fill="none" xmlns="http://www.w3.org/2000/svg">
<g filter="url(#filter0_d_4854_144615)">
<g filter="url(#filter1_d_4854_144615)">
<path fill-rule="evenodd" clip-rule="evenodd" d="M30.258 61.2873C35.8714 55.9552 53 38.7343 53 27.1298C53 13.251 42.031 2 28.5 2C14.969 2 4 13.251 4 27.1298C4 38.7343 21.1286 55.9552 26.742 61.2873C27.7424 62.2376 29.2576 62.2376 30.258 61.2873ZM28.5 37.9986C34.5138 37.9986 39.3889 33.0395 39.3889 26.9221C39.3889 20.8047 34.5138 15.8456 28.5 15.8456C22.4862 15.8456 17.6111 20.8047 17.6111 26.9221C17.6111 33.0395 22.4862 37.9986 28.5 37.9986Z" fill="url(#paint0_linear_4854_144615)"/>
</g>
<circle cx="28.5" cy="26.5" r="11.5" fill="white"/>
</g>
<defs>
<filter id="filter0_d_4854_144615" x="0" y="0" width="57" height="68" filterUnits="userSpaceOnUse" color-interpolation-filters="sRGB">
<feFlood flood-opacity="0" result="BackgroundImageFix"/>
<feColorMatrix in="SourceAlpha" type="matrix" values="0 0 0 0 0 0 0 0 0 0 0 0 0 0 0 0 0 0 127 0" result="hardAlpha"/>
<feOffset dy="2"/>
<feGaussianBlur stdDeviation="2"/>
<feComposite in2="hardAlpha" operator="out"/>
<feColorMatrix type="matrix" values="0 0 0 0 0 0 0 0 0 0 0 0 0 0 0 0 0 0 0.1 0"/>
<feBlend mode="normal" in2="BackgroundImageFix" result="effect1_dropShadow_4854_144615"/>
<feBlend mode="normal" in="SourceGraphic" in2="effect1_dropShadow_4854_144615" result="shape"/>
</filter>
<filter id="filter1_d_4854_144615" x="0" y="0" width="57" height="68" filterUnits="userSpaceOnUse" color-interpolation-filters="sRGB">
<feFlood flood-opacity="0" result="BackgroundImageFix"/>
<feColorMatrix in="SourceAlpha" type="matrix" values="0 0 0 0 0 0 0 0 0 0 0 0 0 0 0 0 0 0 127 0" result="hardAlpha"/>
<feOffset dy="2"/>
<feGaussianBlur stdDeviation="2"/>
<feComposite in2="hardAlpha" operator="out"/>
<feColorMatrix type="matrix" values="0 0 0 0 0 0 0 0 0 0 0 0 0 0 0 0 0 0 0.1 0"/>
<feBlend mode="normal" in2="BackgroundImageFix" result="effect1_dropShadow_4854_144615"/>
<feBlend mode="normal" in="SourceGraphic" in2="effect1_dropShadow_4854_144615" result="shape"/>
</filter>
<linearGradient id="paint0_linear_4854_144615" x1="39.4828" y1="46.1176" x2="-10.3651" y2="22.0649" gradientUnits="userSpaceOnUse">
<stop stop-color="#2F54B6"/>
<stop offset="0.372197" stop-color="#3384E6"/>
<stop offset="0.798591" stop-color="#59A2FF"/>
</linearGradient>
</defs>
</svg>