<svg width="24" height="24" viewBox="0 0 24 24" fill="none" xmlns="http://www.w3.org/2000/svg">
<path d="M20.125 19H3.87501C2.84108 19 2 18.215 2 17.25V14.3333C2 14.0109 2.27953 13.75 2.625 13.75C3.65893 13.75 4.50001 12.965 4.50001 12C4.50001 11.035 3.65893 10.25 2.625 10.25C2.27953 10.25 2 9.98913 2 9.66669V6.75001C2 5.78501 2.84108 5 3.87501 5H20.125C21.159 5 22 5.78501 22 6.75001V9.66669C22 9.98913 21.7205 10.25 21.375 10.25C20.3411 10.25 19.5 11.035 19.5 12C19.5 12.965 20.3411 13.75 21.375 13.75C21.7205 13.75 22 14.0109 22 14.3334V17.2501C22 18.215 21.159 19 20.125 19ZM3.25001 14.858V17.25C3.25001 17.5719 3.53017 17.8334 3.87501 17.8334H20.125C20.4699 17.8334 20.75 17.5719 20.75 17.25V14.858C19.3255 14.5868 18.25 13.4088 18.25 12C18.25 10.5912 19.3254 9.41317 20.75 9.14199V6.75001C20.75 6.42816 20.4699 6.16667 20.125 6.16667H3.87501C3.53017 6.16667 3.25001 6.42816 3.25001 6.75001V9.14203C4.67456 9.41317 5.75002 10.5912 5.75002 12C5.75002 13.4088 4.67456 14.5868 3.25001 14.858Z" fill="#000000"/>
<path d="M9.61475 16.6275L13.2498 6.93395L14.3848 7.35955L10.7497 17.0531L9.61475 16.6275Z" fill="#000000"/>
<path d="M9.00006 12.0001C7.89721 12.0001 7.00006 11.1029 7.00006 10.0001C7.00006 8.89721 7.89721 8.00006 9.00006 8.00006C10.1029 8.00006 11.0001 8.89721 11.0001 10.0001C11.0001 11.1029 10.1029 12.0001 9.00006 12.0001ZM9.00006 9.3334C8.63224 9.3334 8.3334 9.63224 8.3334 10.0001C8.3334 10.3679 8.63224 10.6667 9.00006 10.6667C9.36789 10.6667 9.66673 10.3679 9.66673 10.0001C9.66673 9.63224 9.36789 9.3334 9.00006 9.3334Z" fill="#000000"/>
<path d="M15.0001 16.0001C13.8972 16.0001 13.0001 15.1029 13.0001 14.0001C13.0001 12.8972 13.8972 12.0001 15.0001 12.0001C16.1029 12.0001 17.0001 12.8972 17.0001 14.0001C17.0001 15.1029 16.1029 16.0001 15.0001 16.0001ZM15.0001 13.3334C14.6322 13.3334 14.3334 13.6322 14.3334 14.0001C14.3334 14.3679 14.6322 14.6667 15.0001 14.6667C15.3679 14.6667 15.6667 14.3679 15.6667 14.0001C15.6667 13.6322 15.3679 13.3334 15.0001 13.3334Z" fill="#000000"/>
</svg>
