<svg width="24" height="24" viewBox="0 0 24 24" fill="none" xmlns="http://www.w3.org/2000/svg">
<path d="M12 7.5V7.505M12 12V12.005M12 16.5V16.505M11.5 12C11.5 12.1326 11.5527 12.2598 11.6464 12.3536C11.7402 12.4473 11.8674 12.5 12 12.5C12.1326 12.5 12.2598 12.4473 12.3536 12.3536C12.4473 12.2598 12.5 12.1326 12.5 12C12.5 11.8674 12.4473 11.7402 12.3536 11.6464C12.2598 11.5527 12.1326 11.5 12 11.5C11.8674 11.5 11.7402 11.5527 11.6464 11.6464C11.5527 11.7402 11.5 11.8674 11.5 12ZM20 12C20 13.0506 19.7931 14.0909 19.391 15.0615C18.989 16.0321 18.3997 16.914 17.6569 17.6569C16.914 18.3997 16.0321 18.989 15.0615 19.391C14.0909 19.7931 13.0506 20 12 20C10.9494 20 9.90914 19.7931 8.93853 19.391C7.96793 18.989 7.08601 18.3997 6.34315 17.6569C5.60028 16.914 5.011 16.0321 4.60896 15.0615C4.20693 14.0909 4 13.0506 4 12C4 9.87827 4.84285 7.84344 6.34315 6.34315C7.84344 4.84285 9.87827 4 12 4C14.1217 4 16.1566 4.84285 17.6569 6.34315C19.1571 7.84344 20 9.87827 20 12ZM12 8C11.8674 8 11.7402 7.94732 11.6464 7.85355C11.5527 7.75979 11.5 7.63261 11.5 7.5C11.5 7.36739 11.5527 7.24021 11.6464 7.14645C11.7402 7.05268 11.8674 7 12 7C12.1326 7 12.2598 7.05268 12.3536 7.14645C12.4473 7.24021 12.5 7.36739 12.5 7.5C12.5 7.63261 12.4473 7.75979 12.3536 7.85355C12.2598 7.94732 12.1326 8 12 8ZM12 17C11.8674 17 11.7402 16.9473 11.6464 16.8536C11.5527 16.7598 11.5 16.6326 11.5 16.5C11.5 16.3674 11.5527 16.2402 11.6464 16.1464C11.7402 16.0527 11.8674 16 12 16C12.1326 16 12.2598 16.0527 12.3536 16.1464C12.4473 16.2402 12.5 16.3674 12.5 16.5C12.5 16.6326 12.4473 16.7598 12.3536 16.8536C12.2598 16.9473 12.1326 17 12 17Z" stroke="#000000" stroke-width="1.5" stroke-linecap="round" stroke-linejoin="round"/>
</svg>
