<svg width="24" height="24" viewBox="0 0 24 24" fill="none" xmlns="http://www.w3.org/2000/svg">
<g clip-path="url(#clip0_2524_31602)">
<path d="M17 18.7571H5.28182V9.59143H9.67864H9.77864V9.49143V5.24286H15.7182V9.93143V10.0314H15.8182H17H17.1V9.93143V5.14286C17.1 4.81213 16.9641 4.49565 16.7234 4.26285C16.4827 4.03016 16.1571 3.9 15.8182 3.9H8.05955H8.0191L7.99003 3.92811L3.93048 7.85383L3.9 7.88331V7.92571V18.8571C3.9 19.1879 4.03589 19.5043 4.27663 19.7372C4.51726 19.9698 4.84292 20.1 5.18182 20.1H15.8182C16.1571 20.1 16.4827 19.9698 16.7234 19.7372C16.9641 19.5043 17.1 19.1879 17.1 18.8571V18.7571H17ZM5.28182 8.47143V8.43669L8.58453 5.24286H8.62727V8.47143H5.28182Z" fill="#000000" stroke="#000000" stroke-width="0.2"/>
<path d="M18.067 11.0739L18.0672 11.0737L18.0618 11.0686C17.9419 10.9548 17.7856 10.8936 17.6239 10.9005C17.4622 10.9074 17.3111 10.9817 17.2 11.1049C17.0891 11.2278 17.0255 11.3907 17.0196 11.5606C17.0137 11.7306 17.0657 11.898 17.1673 12.0296L17.1671 12.0297L17.1723 12.0355L18.7417 13.7695H12.5294C12.359 13.7695 12.1979 13.8446 12.0808 13.9744C11.9641 14.1038 11.9 14.2773 11.9 14.4563C11.9 14.6353 11.9641 14.8088 12.0808 14.9381C12.1979 15.0679 12.359 15.143 12.5294 15.143H18.758L17.1747 16.8978C17.1106 16.9595 17.059 17.0344 17.0226 17.1177C16.9857 17.2022 16.9651 17.2939 16.9619 17.3871C16.9586 17.4803 16.9728 17.5734 17.0036 17.6606C17.0345 17.7479 17.0815 17.8278 17.1422 17.8951C17.203 17.9625 17.2763 18.0159 17.3579 18.0513C17.4395 18.0867 17.5273 18.1033 17.6155 18.0995C17.7038 18.0957 17.79 18.0717 17.8687 18.0296C17.9461 17.988 18.0144 17.9298 18.0697 17.8591L21.0743 14.5232L21.1348 14.456L21.0741 14.3891L18.067 11.0739Z" fill="#000000" stroke="#000000" stroke-width="0.2"/>
</g>
<defs>
<clipPath id="clip0_2524_31602">
<rect width="24" height="24" fill="white"/>
</clipPath>
</defs>
</svg>
