<svg width="24" height="24" viewBox="0 0 24 24" fill="none" xmlns="http://www.w3.org/2000/svg">
<path d="M3.34249 7.77791C3.56864 7.23194 3.90011 6.73587 4.31798 6.318C4.73584 5.90013 5.23192 5.56866 5.77789 5.34251C6.32386 5.11636 6.90902 4.99996 7.49998 4.99996C8.09093 4.99996 8.6761 5.11636 9.22207 5.34251C9.76803 5.56866 10.2641 5.90013 10.682 6.318L12 7.636L13.318 6.318C14.1619 5.47408 15.3065 4.99997 16.5 4.99997C17.6935 4.99997 18.8381 5.47408 19.682 6.318C20.5259 7.16192 21 8.30652 21 9.5C21 10.6935 20.5259 11.8381 19.682 12.682L12 20.364L4.31798 12.682C3.90011 12.2641 3.56864 11.7681 3.34249 11.2221C3.11634 10.6761 2.99994 10.091 2.99994 9.5C2.99994 8.90905 3.11634 8.32388 3.34249 7.77791Z" stroke="#000000" stroke-width="2" stroke-linecap="round" stroke-linejoin="round"/>
</svg>
