<svg width="23" height="22" viewBox="0 0 23 22" fill="none" xmlns="http://www.w3.org/2000/svg">
<circle cx="19" cy="4" r="4" fill="#003CDE"/>
<path fill-rule="evenodd" clip-rule="evenodd" d="M14.416 2H2C1.46957 2 0.960859 2.21071 0.585786 2.58579C0.210714 2.96086 0 3.46957 0 4V6.586V6.58621C0.000113308 7.11655 0.210861 7.62513 0.585893 8.00011L0.586 8.00021L6.99989 14.4141L7 14.4142V21C7 21.4045 7.24364 21.7691 7.61732 21.9239C7.99099 22.0787 8.42111 21.9931 8.70711 21.7071L12.7071 17.7071C12.8946 17.5196 13 17.2652 13 17V14.4142L13.0001 14.4141L18.4447 8.96951C17.6803 8.88505 16.9678 8.62826 16.3469 8.23885L11.586 12.9998L11.5859 12.9999C11.2109 13.3749 11.0001 13.8834 11 14.4138V14.414V16.5858L9 18.5858V14.414V14.4138C8.99989 13.8834 8.78914 13.3749 8.41411 12.9999L8.414 12.9998L2.00011 6.58589L2 6.58579V4H14C14 3.2889 14.1484 2.61246 14.416 2Z" fill="#000000"/>
</svg>
