<svg width="16" height="16" viewBox="0 0 16 16" fill="none" xmlns="http://www.w3.org/2000/svg">

<path d="M7.99995 4.06845C7.45713 4.06845 7.01709 4.50849 7.01709 5.05131C7.01709 5.59412 7.45713 6.03417 7.99995 6.03417C8.54277 6.03417 8.98281 5.59412 8.98281 5.05131C8.98281 4.50849 8.54277 4.06845 7.99995 4.06845Z" fill="#000000"/>
<path d="M7.23556 11.4399C7.23556 11.8621 7.57782 12.2043 8.00001 12.2043C8.4222 12.2043 8.76445 11.8621 8.76445 11.4399L8.76445 7.50843C8.76445 7.08624 8.4222 6.74398 8.00001 6.74398C7.57782 6.74398 7.23556 7.08624 7.23556 7.50843L7.23556 11.4399Z" fill="#000000"/>
<path fill-rule="evenodd" clip-rule="evenodd" d="M0.355469 7.99993C0.355469 3.77801 3.77801 0.355469 7.99993 0.355469C12.2219 0.355469 15.6444 3.77801 15.6444 7.99993C15.6444 12.2219 12.2219 15.6444 7.99993 15.6444C3.77801 15.6444 0.355469 12.2219 0.355469 7.99993ZM7.99993 1.88436C4.62239 1.88436 1.88436 4.62239 1.88436 7.99993C1.88436 11.3775 4.62239 14.1155 7.99993 14.1155C11.3775 14.1155 14.1155 11.3775 14.1155 7.99993C14.1155 4.62239 11.3775 1.88436 7.99993 1.88436Z" fill="#000000"/>

</svg>
