<svg width="24" height="24" viewBox="0 0 24 24" fill="none" xmlns="http://www.w3.org/2000/svg">
<path d="M13.828 10.172C13.0779 9.42212 12.0607 9.00085 11 9.00085C9.93936 9.00085 8.92213 9.42212 8.17202 10.172L4.17202 14.172C3.78998 14.541 3.48525 14.9824 3.27561 15.4704C3.06598 15.9584 2.95563 16.4833 2.95102 17.0144C2.9464 17.5455 3.04761 18.0722 3.24873 18.5638C3.44986 19.0554 3.74687 19.502 4.12244 19.8776C4.49801 20.2532 4.94462 20.5502 5.4362 20.7513C5.92779 20.9524 6.45451 21.0536 6.98562 21.049C7.51674 21.0444 8.04162 20.934 8.52964 20.7244C9.01765 20.5148 9.45903 20.21 9.82802 19.828L10.93 18.727M10.172 13.828C10.9221 14.5779 11.9394 14.9991 13 14.9991C14.0607 14.9991 15.0779 14.5779 15.828 13.828L19.828 9.828C20.5567 9.07359 20.9598 8.06318 20.9507 7.01439C20.9416 5.96561 20.5209 4.96236 19.7793 4.22073C19.0377 3.47909 18.0344 3.05842 16.9856 3.0493C15.9368 3.04019 14.9264 3.44337 14.172 4.172L13.072 5.272" stroke="#000000" stroke-width="2" stroke-linecap="round" stroke-linejoin="round"/>
</svg>
