<svg width="24" height="24" viewBox="0 0 24 24" fill="none" xmlns="http://www.w3.org/2000/svg">
<path fill-rule="evenodd" clip-rule="evenodd" d="M11.0769 4.46101C7.62929 4.81154 4.88847 7.55234 4.53792 11H6.98076C7.39497 11 7.73076 11.3357 7.73076 11.75C7.73076 12.1642 7.39497 12.5 6.98076 12.5H4.53791C4.88844 15.9476 7.62927 18.6885 11.0769 19.039V16.5961C11.0769 16.1819 11.4127 15.8461 11.8269 15.8461C12.2411 15.8461 12.5769 16.1819 12.5769 16.5961V19.039C16.0246 18.6884 18.7654 15.9476 19.1159 12.5H16.6732C16.259 12.5 15.9232 12.1642 15.9232 11.75C15.9232 11.3357 16.259 11 16.6732 11H19.1159C18.7653 7.55236 16.0245 4.81156 12.5769 4.46101V6.90386C12.5769 7.31807 12.2411 7.65386 11.8269 7.65386C11.4127 7.65386 11.0769 7.31807 11.0769 6.90386V4.46101ZM11.8269 2.9231C11.8269 2.9231 11.8269 2.9231 11.8269 2.9231C6.95194 2.9231 3 6.87503 3 11.75C3 16.625 6.95194 20.5769 11.8269 20.5769C16.6964 20.5769 20.6449 16.6339 20.6538 11.7665L20.654 11.75L20.6538 11.7334C20.6448 6.86607 16.6963 2.92311 11.8269 2.9231Z" fill="#000000"/>
</svg>
