<svg width="24" height="24" viewBox="0 0 24 24" fill="none" xmlns="http://www.w3.org/2000/svg">
<path fill-rule="evenodd" clip-rule="evenodd" d="M12.9664 19.81C14.4557 18.3881 19 13.7958 19 10.7013C19 7.00026 16.0899 4 12.5 4C8.91015 4 6 7.00026 6 10.7013C6 13.7958 10.5443 18.3881 12.0336 19.8099C12.299 20.0633 12.701 20.0633 12.9664 19.81ZM12.5 13.5996C14.0955 13.5996 15.3889 12.2772 15.3889 10.6459C15.3889 9.01459 14.0955 7.69216 12.5 7.69216C10.9045 7.69216 9.61111 9.01459 9.61111 10.6459C9.61111 12.2772 10.9045 13.5996 12.5 13.5996Z" stroke="#000000" stroke-width="1.5" stroke-linecap="round" stroke-linejoin="round"/>
</svg>
