<svg width="24" height="24" viewBox="0 0 24 24" fill="none" xmlns="http://www.w3.org/2000/svg">
<path d="M3 19V10.07C2.99995 9.74081 3.08116 9.41671 3.23641 9.12643C3.39166 8.83616 3.61617 8.5887 3.89 8.406L10.89 3.74C11.2187 3.52072 11.6049 3.4037 12 3.4037C12.3951 3.4037 12.7813 3.52072 13.11 3.74L20.11 8.406C20.3838 8.5887 20.6083 8.83616 20.7636 9.12643C20.9188 9.41671 21 9.74081 21 10.07V19M3 19C3 19.5304 3.21071 20.0391 3.58579 20.4142C3.96086 20.7893 4.46957 21 5 21H19C19.5304 21 20.0391 20.7893 20.4142 20.4142C20.7893 20.0391 21 19.5304 21 19M3 19L9.75 14.5M21 19L14.25 14.5M9.75 14.5L3 10M9.75 14.5L10.89 15.26C11.2187 15.4793 11.6049 15.5963 12 15.5963C12.3951 15.5963 12.7813 15.4793 13.11 15.26L14.25 14.5M14.25 14.5L21 10" stroke="#000000" stroke-width="2" stroke-linecap="round" stroke-linejoin="round"/>
</svg>
