<svg width="24" height="24" viewBox="0 0 24 24" fill="none" xmlns="http://www.w3.org/2000/svg">
<path d="M11 5H6C5.46957 5 4.96086 5.21072 4.58579 5.58579C4.21071 5.96086 4 6.46957 4 7V18C4 18.5304 4.21071 19.0391 4.58579 19.4142C4.96086 19.7893 5.46957 20 6 20H17C17.5304 20 18.0391 19.7893 18.4142 19.4142C18.7893 19.0391 19 18.5304 19 18V13M17.586 3.586C17.7705 3.39498 17.9912 3.24262 18.2352 3.1378C18.4792 3.03298 18.7416 2.97781 19.0072 2.9755C19.2728 2.97319 19.5361 3.0238 19.7819 3.12436C20.0277 3.22492 20.251 3.37343 20.4388 3.56121C20.6266 3.749 20.7751 3.9723 20.8756 4.21809C20.9762 4.46389 21.0268 4.72725 21.0245 4.9928C21.0222 5.25836 20.967 5.5208 20.8622 5.76481C20.7574 6.00882 20.605 6.22951 20.414 6.414L11.828 15H9V12.172L17.586 3.586Z" stroke="#000000" stroke-width="2" stroke-linecap="round" stroke-linejoin="round"/>
</svg>
