<svg width="24" height="24" viewBox="0 0 24 24" fill="none" xmlns="http://www.w3.org/2000/svg">
<path d="M17.4844 18.2674H16.3125C15.9891 18.2674 15.7266 18.5461 15.7266 18.8895C15.7266 19.2329 15.9891 19.5116 16.3125 19.5116H17.4844C17.8078 19.5116 18.0703 19.2329 18.0703 18.8895C18.0703 18.5461 17.8078 18.2674 17.4844 18.2674ZM16.3125 14.5348H14.5156V13.5917C15.9695 12.5578 16.8594 10.9823 16.8594 9.11223V7.59887C16.8594 6.59854 16.6109 5.65876 16.1762 4.84506C16.1625 4.81437 16.1461 4.78492 16.1277 4.75672C15.209 3.10816 13.5172 2 11.5859 2C8.67812 2 6.3125 4.51161 6.3125 7.59887V9.11223C6.3125 10.9823 7.20234 12.5578 8.65625 13.5917V14.5348H6.85938C3.95156 14.5348 2 17.0465 2 20.1337V21.3779C2 21.7213 2.2625 22 2.58594 22H21C21.3234 22 21.5859 21.7213 21.5859 21.3779V20.1337C21.5859 17.0465 19.2203 14.5348 16.3125 14.5348ZM8.65625 20.7558H3.17188V20.1337C3.17188 17.7324 4.59766 15.779 6.85938 15.779H8.65625V20.7558ZM11.5859 3.24419C12.9773 3.24419 14.209 3.98366 14.9508 5.11173C14.1879 6.27007 12.9285 6.97678 11.5859 6.97678H7.52656C7.81172 4.86911 9.52344 3.24419 11.5859 3.24419ZM13.3438 20.7558H9.82812V16.5206C10.357 16.8445 10.9637 17.0232 11.5859 17.0232C12.2082 17.0232 12.8148 16.8449 13.3438 16.5206V20.7558ZM13.6363 12.7084C13.4551 12.8195 13.3438 13.0248 13.3438 13.2467V14.9346C12.902 15.4659 12.2578 15.7786 11.5859 15.7786C10.9141 15.7786 10.2699 15.4659 9.82812 14.9346V13.2467C9.82812 13.0248 9.7168 12.8195 9.53555 12.7084C8.27031 11.9312 7.48438 10.6621 7.48438 9.11223V8.22097H11.5859C13.0969 8.22097 14.5258 7.52546 15.516 6.35302C15.6273 6.74784 15.6875 7.16589 15.6875 7.59887V9.11223C15.6875 10.6621 14.9016 11.9312 13.6363 12.7084ZM20.4141 20.7558H14.5156V15.779H16.3125C18.5742 15.779 20.4141 17.7324 20.4141 20.1337V20.7558Z" fill="#000000" stroke="#000000" stroke-width="0.4"/>
<path d="M20.5 5L20.5 8" stroke="#000000" stroke-width="1.5" stroke-linecap="round" stroke-linejoin="round"/>
<path d="M22 6.5L19 6.5" stroke="#000000" stroke-width="1.5" stroke-linecap="round" stroke-linejoin="round"/>
</svg>
