<svg xmlns="http://www.w3.org/2000/svg" fill="none" stroke-width="1.5" aria-hidden="true" data-slot="icon" viewBox="0 0 24 24" stroke="currentColor">
  <path d="m12 14 9-5-9-5-9 5z"/>
  <path d="m12 14 6.16-3.422c.8105 2.0581 1.0406 4.2992.665 6.479-2.5364.2462-4.9278 1.2966-6.825 2.998-1.8969-1.7012-4.2879-2.7516-6.82398-2.998-.3758-2.1798-.14577-4.421.665-6.479z"/>
  <path stroke-linecap="round" stroke-linejoin="round" d="m12 14 9-5-9-5-9 5zm0 0 6.16-3.422c.8105 2.0581 1.0405 4.2992.665 6.479-2.5364.2462-4.9278 1.2966-6.825 2.998-1.8969-1.7012-4.28792-2.7516-6.824-2.998-.3758-2.1798-.14577-4.421.665-6.479zm-4 6v-7.5l4-2.222"/>
</svg>
