<svg xmlns="http://www.w3.org/2000/svg" fill="none" stroke-width="1.5" aria-hidden="true" data-slot="icon" viewBox="0 0 24 24" stroke="currentColor">
  <path stroke-linecap="round" stroke-linejoin="round" d="M19.428 15.428c-.2792-.2792-.6348-.4696-1.022-.547l-2.387-.477c-1.3083-.2616-2.6666-.0797-3.86.517l-.318.158c-1.1934.5967-2.55162.7786-3.85998.517l-1.931-.386c-.3228-.0645-.65653-.0483-.97157.0471s-.60167.2671-.83443.4999M8.00002 4H16l-1 1v5.172c.0001.5304.2109 1.039.586 1.414l5 5c1.26 1.26.367 3.414-1.415 3.414H4.82802c-1.782 0-2.674-2.154-1.414-3.414l5-5c.37509-.375.58588-.8836.586-1.414V5z"/>
</svg>
