<svg xmlns="http://www.w3.org/2000/svg" fill="none" stroke-width="1.5" aria-hidden="true" data-slot="icon" viewBox="0 0 24 24" stroke="currentColor">
  <path stroke-linecap="round" stroke-linejoin="round" d="M15 17h5l-1.405-1.405c-.1887-.1887-.3383-.4128-.4404-.6593-.1021-.2466-.1546-.5108-.1546-.7777V11c.0002-1.24106-.3844-2.45166-1.1008-3.46511C16.1829 6.52144 15.17 5.75496 14 5.341V5c0-.53043-.2107-1.03914-.5858-1.41421C13.0391 3.21071 12.5304 3 12 3s-1.0391.21071-1.4142.58579C10.2107 3.96086 10 4.46957 10 5v.341C7.67 6.165 6 8.388 6 11v3.159c0 .538-.214 1.055-.595 1.436L4 17h5m6 0H9m6 0v1c0 .7956-.3161 1.5587-.8787 2.1213S12.7956 21 12 21s-1.5587-.3161-2.12132-.8787C9.31607 19.5587 9 18.7956 9 18v-1"/>
</svg>
