<svg xmlns="http://www.w3.org/2000/svg" fill="none" stroke-width="1.5" aria-hidden="true" data-slot="icon" viewBox="0 0 24 24" stroke="currentColor">
  <path stroke-linecap="round" stroke-linejoin="round" d="M16 4v12l-4-2-4 2V4zM6 20h12c.5304 0 1.0391-.2107 1.4142-.5858S20 18.5304 20 18V6c0-.53043-.2107-1.03914-.5858-1.41421C19.0391 4.21071 18.5304 4 18 4H6c-.53043 0-1.03914.21071-1.41421.58579C4.21071 4.96086 4 5.46957 4 6v12c0 .5304.21071 1.0391.58579 1.4142C4.96086 19.7893 5.46957 20 6 20"/>
</svg>
