<svg xmlns="http://www.w3.org/2000/svg" fill="none" viewBox="0 0 24 24">
  <path stroke="#000" stroke-linecap="round" stroke-linejoin="round" stroke-width="2" d="M9 7h6m0 10v-3m-3 3h.01M9 17h.01M9 14h.01M12 14h.01M15 11h.01M12 11h.01M9 11h.01M7 21h10c.5304 0 1.0391-.2107 1.4142-.5858S19 19.5304 19 19V5c0-.53043-.2107-1.03914-.5858-1.41421C18.0391 3.21071 17.5304 3 17 3H7c-.53043 0-1.03914.21071-1.41421.58579C5.21071 3.96086 5 4.46957 5 5v14c0 .5304.21071 1.0391.58579 1.4142C5.96086 20.7893 6.46957 21 7 21"/>
</svg>
