<svg xmlns="http://www.w3.org/2000/svg" fill="none" stroke-width="1.5" aria-hidden="true" data-slot="icon" viewBox="0 0 24 24" stroke="currentColor">
  <path stroke-linecap="round" stroke-linejoin="round" d="M3.58579 7.58579C3.21071 7.96086 3 8.46957 3 9v9c0 .5304.21071 1.0391.58579 1.4142C3.96086 19.7893 4.46957 20 5 20h14c.5304 0 1.0391-.2107 1.4142-.5858S21 18.5304 21 18V9c0-.53043-.2107-1.03914-.5858-1.41421C20.0391 7.21071 19.5304 7 19 7h-.93c-.3292.00005-.6533-.08116-.9436-.23641-.2902-.15525-.5377-.37976-.7204-.65359l-.812-1.22c-.1827-.27383-.4302-.49834-.7204-.65359-.2903-.15525-.6144-.23646-.9436-.23641h-3.86c-.32918-.00005-.65329.08116-.94357.23641-.29027.15525-.53773.37976-.72043.65359l-.812 1.22c-.1827.27383-.43016.49834-.72043.65359-.29028.15525-.61439.23646-.94357.23641H5c-.53043 0-1.03914.21071-1.41421.58579"/>
  <path stroke-linecap="round" stroke-linejoin="round" d="M14.1213 15.1213C14.6839 14.5587 15 13.7956 15 13s-.3161-1.5587-.8787-2.1213S12.7956 10 12 10s-1.5587.3161-2.12132.8787C9.31607 11.4413 9 12.2044 9 13s.31607 1.5587.87868 2.1213C10.4413 15.6839 11.2044 16 12 16s1.5587-.3161 2.1213-.8787"/>
</svg>
