<svg xmlns="http://www.w3.org/2000/svg" fill="none" stroke-width="1.5" aria-hidden="true" data-slot="icon" viewBox="0 0 24 24" stroke="currentColor">
  <path stroke-linecap="round" stroke-linejoin="round" d="M8 5H6c-.53043 0-1.03914.21071-1.41421.58579C4.21071 5.96086 4 6.46957 4 7v12c0 .5304.21071 1.0391.58579 1.4142C4.96086 20.7893 5.46957 21 6 21h10c.5304 0 1.0391-.2107 1.4142-.5858S18 19.5304 18 19v-1M8 5c0 .53043.21071 1.03914.58579 1.41421C8.96086 6.78929 9.46957 7 10 7h2c.5304 0 1.0391-.21071 1.4142-.58579C13.7893 6.03914 14 5.53043 14 5M8 5c0-.53043.21071-1.03914.58579-1.41421C8.96086 3.21071 9.46957 3 10 3h2c.5304 0 1.0391.21071 1.4142.58579C13.7893 3.96086 14 4.46957 14 5m0 0h2c.5304 0 1.0391.21071 1.4142.58579C17.7893 5.96086 18 6.46957 18 7v3m2 4H10m0 0 3-3m-3 3 3 3"/>
</svg>
