<svg xmlns="http://www.w3.org/2000/svg" fill="none" viewBox="0 0 24 24">
  <path stroke="#000" stroke-linecap="round" stroke-linejoin="round" stroke-width="2" d="M7 21c-1.06087 0-2.07828-.4214-2.82843-1.1716C3.42143 19.0783 3 18.0609 3 17V5c0-.53043.21071-1.03914.58579-1.41421C3.96086 3.21071 4.46957 3 5 3h4c.53043 0 1.0391.21071 1.4142.58579C10.7893 3.96086 11 4.46957 11 5v12c0 1.0609-.4214 2.0783-1.17157 2.8284M7 21c1.06087 0 2.07828-.4214 2.82843-1.1716M7 21h12c.5304 0 1.0391-.2107 1.4142-.5858S21 19.5304 21 19v-4c0-.5304-.2107-1.0391-.5858-1.4142S19.5304 13 19 13h-2.343m-6.82857 6.8284L18.314 11.343c.3749-.3751.5856-.8837.5856-1.414 0-.53033-.2107-1.03894-.5856-1.414l-2.829-2.829c-.3751-.37494-.8837-.58557-1.414-.58557s-1.0389.21063-1.414.58557L11 7.343M7 17h.01"/>
</svg>
