<svg xmlns="http://www.w3.org/2000/svg" fill="none" stroke-width="1.5" aria-hidden="true" data-slot="icon" viewBox="0 0 24 24" stroke="currentColor">
  <path fill="#000" d="M20.125 19H3.87501C2.84108 19 2 18.215 2 17.25v-2.9167c0-.3224.27953-.5833.625-.5833 1.03393 0 1.87501-.785 1.87501-1.75s-.84108-1.75-1.87501-1.75c-.34547 0-.625-.26087-.625-.58331V6.75001C2 5.78501 2.84108 5 3.87501 5H20.125C21.159 5 22 5.78501 22 6.75001v2.91668c0 .32244-.2795.58331-.625.58331-1.0339 0-1.875.785-1.875 1.75s.8411 1.75 1.875 1.75c.3455 0 .625.2609.625.5834v2.9167C22 18.215 21.159 19 20.125 19M3.25001 14.858v2.392c0 .3219.28016.5834.625.5834H20.125c.3449 0 .625-.2615.625-.5834v-2.392c-1.4245-.2712-2.5-1.4492-2.5-2.858s1.0754-2.58683 2.5-2.85801V6.75001c0-.32185-.2801-.58334-.625-.58334H3.87501c-.34484 0-.625.26149-.625.58334v2.39202C4.67456 9.41317 5.75002 10.5912 5.75002 12s-1.07546 2.5868-2.50001 2.858"/>
  <path fill="#000" d="m9.61475 16.6275 3.63505-9.69355 1.135.4256-3.6351 9.69355zm-.61469-4.6274c-1.10285 0-2-.8972-2-2 0-1.10289.89715-2.00004 2-2.00004 1.10284 0 2.00004.89715 2.00004 2.00004 0 1.1028-.8972 2-2.00004 2m0-2.6667c-.36782 0-.66666.29884-.66666.6667 0 .3678.29884.6666.66666.6666.36783 0 .66667-.2988.66667-.6666 0-.36786-.29884-.6667-.66667-.6667m6.00004 6.6667c-1.1029 0-2-.8972-2-2 0-1.1029.8971-2 2-2 1.1028 0 2 .8971 2 2 0 1.1028-.8972 2-2 2m0-2.6667c-.3679 0-.6667.2988-.6667.6667 0 .3678.2988.6666.6667.6666.3678 0 .6666-.2988.6666-.6666 0-.3679-.2988-.6667-.6666-.6667"/>
</svg>
