<svg xmlns="http://www.w3.org/2000/svg" fill="none" stroke-width="1.5" aria-hidden="true" data-slot="icon" viewBox="0 0 24 24" stroke="currentColor">
  <path stroke-linecap="round" stroke-linejoin="round" d="M10 21h7c.5304 0 1.0391-.2107 1.4142-.5858S19 19.5304 19 19V9.414c-.0001-.2652-.1054-.51951-.293-.707l-5.414-5.414c-.1875-.18755-.4418-.29294-.707-.293H7c-.53043 0-1.03914.21071-1.41421.58579C5.21071 3.96086 5 4.46957 5 5v11m0 5 4.879-4.879m0 0c.2777.2823.6086.5069.9735.6607s.7567.2339 1.1527.2356c.396.0016.7884-.0752 1.1547-.2259.3662-.1508.6989-.3726.9789-.6526.2801-.28.502-.6126.6528-.9788.1509-.3662.2277-.7586.2261-1.1546-.0015-.396-.0815-.7878-.2352-1.1528-.1538-.3649-.3782-.6958-.6605-.9736-.5641-.5551-1.3247-.8648-2.1161-.8617s-1.5495.3189-2.1092.8784c-.55968.5596-.87559 1.3176-.8789 2.109-.00332.7914.30622 1.5521.8612 2.1163"/>
</svg>
