<svg xmlns="http://www.w3.org/2000/svg" fill="none" stroke-width="1.5" aria-hidden="true" data-slot="icon" viewBox="0 0 24 24" stroke="currentColor">
  <path stroke-linecap="round" stroke-linejoin="round" d="M9 12h6m-6 4h6m2 5H7c-.53043 0-1.03914-.2107-1.41421-.5858C5.21071 20.0391 5 19.5304 5 19V5c0-.53043.21071-1.03914.58579-1.41421C5.96086 3.21071 6.46957 3 7 3h5.586c.2652.00006.5195.10545.707.293l5.414 5.414c.1876.18749.2929.4418.293.707V19c0 .5304-.2107 1.0391-.5858 1.4142S17.5304 21 17 21"/>
</svg>
