<svg xmlns="http://www.w3.org/2000/svg" fill="none" stroke-width="1.5" aria-hidden="true" data-slot="icon" viewBox="0 0 24 24" stroke="currentColor">
  <path stroke-linecap="round" stroke-linejoin="round" d="M8 12h.01M12 12h.01M16 12h.01M21 12c0 1.1819-.2328 2.3522-.6851 3.4442-.4523 1.0919-1.1152 2.084-1.9509 2.9198-.8358.8357-1.8279 1.4986-2.9198 1.9509C14.3522 20.7672 13.1819 21 12 21s-2.35222-.2328-3.44415-.6851-2.08408-1.1152-2.91981-1.9509c-.83573-.8358-1.49866-1.8279-1.95096-2.9198C3.23279 14.3522 3 13.1819 3 12c0-2.38695.94821-4.67613 2.63604-6.36396S9.61305 3 12 3c2.3869 0 4.6761.94821 6.364 2.63604C20.0518 7.32387 21 9.61305 21 12"/>
</svg>
