<svg xmlns="http://www.w3.org/2000/svg" fill="none" viewBox="0 0 24 24">
  <path stroke="#000" stroke-linecap="round" stroke-linejoin="round" stroke-width="2" d="M12 5v.01M12 12v.01M12 19v.01M12 6c-.2652 0-.5196-.10536-.7071-.29289C11.1054 5.51957 11 5.26522 11 5s.1054-.51957.2929-.70711C11.4804 4.10536 11.7348 4 12 4s.5196.10536.7071.29289C12.8946 4.48043 13 4.73478 13 5s-.1054.51957-.2929.70711C12.5196 5.89464 12.2652 6 12 6m0 7c-.2652 0-.5196-.1054-.7071-.2929S11 12.2652 11 12s.1054-.5196.2929-.7071S11.7348 11 12 11s.5196.1054.7071.2929S13 11.7348 13 12s-.1054.5196-.2929.7071S12.2652 13 12 13m0 7c-.2652 0-.5196-.1054-.7071-.2929S11 19.2652 11 19s.1054-.5196.2929-.7071S11.7348 18 12 18s.5196.1054.7071.2929S13 18.7348 13 19s-.1054.5196-.2929.7071S12.2652 20 12 20"/>
</svg>
