<svg xmlns="http://www.w3.org/2000/svg" fill="none" stroke-width="1.5" aria-hidden="true" data-slot="icon" viewBox="0 0 24 24" stroke="currentColor">
  <path stroke-linecap="round" stroke-linejoin="round" d="M12 7.5v.005M12 12v.005m0 4.495v.005M11.5 12c0 .1326.0527.2598.1464.3536.0938.0937.221.1464.3536.1464s.2598-.0527.3536-.1464c.0937-.0938.1464-.221.1464-.3536s-.0527-.2598-.1464-.3536c-.0938-.0937-.221-.1464-.3536-.1464s-.2598.0527-.3536.1464c-.0937.0938-.1464.221-.1464.3536m8.5 0c0 1.0506-.2069 2.0909-.609 3.0615-.402.9706-.9913 1.8525-1.7341 2.5954-.7429.7428-1.6248 1.3321-2.5954 1.7341-.9706.4021-2.0109.609-3.0615.609s-2.09086-.2069-3.06147-.609c-.9706-.402-1.85252-.9913-2.59538-1.7341-.74287-.7429-1.33215-1.6248-1.73419-2.5954C4.20693 14.0909 4 13.0506 4 12c0-2.12173.84285-4.15656 2.34315-5.65685C7.84344 4.84285 9.87827 4 12 4c2.1217 0 4.1566.84285 5.6569 2.34315C19.1571 7.84344 20 9.87827 20 12m-8-4c-.1326 0-.2598-.05268-.3536-.14645C11.5527 7.75979 11.5 7.63261 11.5 7.5s.0527-.25979.1464-.35355C11.7402 7.05268 11.8674 7 12 7s.2598.05268.3536.14645c.0937.09376.1464.22094.1464.35355s-.0527.25979-.1464.35355C12.2598 7.94732 12.1326 8 12 8m0 9c-.1326 0-.2598-.0527-.3536-.1464-.0937-.0938-.1464-.221-.1464-.3536s.0527-.2598.1464-.3536c.0938-.0937.221-.1464.3536-.1464s.2598.0527.3536.1464c.0937.0938.1464.221.1464.3536s-.0527.2598-.1464.3536c-.0938.0937-.221.1464-.3536.1464"/>
</svg>
