<svg xmlns="http://www.w3.org/2000/svg" fill="none" stroke-width="1.5" aria-hidden="true" data-slot="icon" viewBox="0 0 24 24" stroke="currentColor">
  <g fill="#000" stroke-width=".2" clip-path="url(#a)">
    <path d="M17 18.7571H5.28182V9.59143h4.49682V5.24286h5.93956v4.78854H17.1V5.14286c0-.33073-.1359-.64721-.3766-.88001-.2407-.23269-.5663-.36285-.9052-.36285H8.0191l-.02907.02811-4.05955 3.92572L3.9 7.88331V18.8571c0 .3308.13589.6472.37663.8801.24063.2326.56629.3628.90519.3628H15.8182c.3389 0 .6645-.1302.9052-.3628.2407-.2329.3766-.5493.3766-.8801v-.1zM5.28182 8.47143v-.03474l3.30271-3.19383h.04274v3.22857z"/>
    <path d="m18.067 11.0739.0002-.0002-.0054-.0051c-.1199-.1138-.2762-.175-.4379-.1681s-.3128.0812-.4239.2044c-.1109.1229-.1745.2858-.1804.4557-.0059.17.0461.3374.1477.469l-.0002.0001.0052.0058 1.5694 1.734h-6.2123c-.1704 0-.3315.0751-.4486.2049-.1167.1294-.1808.3029-.1808.4819s.0641.3525.1808.4818c.1171.1298.2782.2049.4486.2049h6.2286l-1.5833 1.7548c-.0641.0617-.1157.1366-.1521.2199-.0369.0845-.0575.1762-.0607.2694-.0033.0932.0109.1863.0417.2735.0309.0873.0779.1672.1386.2345.0608.0674.1341.1208.2157.1562s.1694.052.2576.0482c.0883-.0038.1745-.0278.2532-.0699.0774-.0416.1457-.0998.201-.1705l3.0046-3.3359.0605-.0672-.0607-.0669z"/>
  </g>
  <defs>
    <clipPath id="a">
      <path fill="#fff" d="M0 0h24v24H0z"/>
    </clipPath>
  </defs>
</svg>
