<svg xmlns="http://www.w3.org/2000/svg" fill="none" viewBox="0 0 24 24">
  <path stroke="#000" stroke-linecap="round" stroke-linejoin="round" stroke-width="2" d="M12.2274 12.4472c-.0694.1389-.1702.2597-.2944.3528l-5.333 4c-.14857.1114-.32523.1793-.51019.196-.18497.0166-.37092-.0185-.53702-.1016-.16611-.083-.30581-.2107-.40344-.3687C5.05171 16.3678 5 16.1857 5 16V8c0-.18571.05171-.36775.14935-.52573.09763-.15798.23733-.28564.40344-.3687.1661-.08305.35205-.11821.53702-.10153.18496.01668.36162.08453.51019.19596l5.333 4c.1242.0931.225.2139.2944.3528.0695.1388.1056.292.1056.4472s-.0361.3084-.1056.4472m8 0c-.0694.1389-.1702.2597-.2944.3528l-5.333 4c-.1486.1114-.3252.1793-.5102.196-.185.0166-.3709-.0185-.537-.1016-.1661-.083-.3058-.2107-.4035-.3687C13.0517 16.3678 13 16.1857 13 16V8c0-.18571.0517-.36775.1493-.52573.0977-.15798.2374-.28564.4035-.3687.1661-.08305.352-.11821.537-.10153s.3616.08453.5102.19596l5.333 4c.1242.0931.225.2139.2944.3528.0695.1388.1056.292.1056.4472s-.0361.3084-.1056.4472"/>
</svg>
