<svg xmlns="http://www.w3.org/2000/svg" fill="none" stroke-width="1.5" aria-hidden="true" data-slot="icon" viewBox="0 0 24 24" stroke="currentColor">
  <path stroke-linecap="round" stroke-linejoin="round" d="M12 10v6m0 0-3-3m3 3 3-3M3 17V7c0-.53043.21071-1.03914.58579-1.41421C3.96086 5.21071 4.46957 5 5 5h6l2 2h6c.5304 0 1.0391.21071 1.4142.58579C20.7893 7.96086 21 8.46957 21 9v8c0 .5304-.2107 1.0391-.5858 1.4142S19.5304 19 19 19H5c-.53043 0-1.03914-.2107-1.41421-.5858C3.21071 18.0391 3 17.5304 3 17"/>
</svg>
