<svg xmlns="http://www.w3.org/2000/svg" fill="none" viewBox="0 0 24 24">
  <path stroke="#000" stroke-linecap="round" stroke-linejoin="round" stroke-width="2" d="M12 8v13m0-13V6c0-.39556.1173-.78224.3371-1.11114.2197-.3289.5321-.58524.8975-.73662.3655-.15137.7676-.19098 1.1556-.11381.3879.07717.7443.26765 1.024.54736.2797.2797.4702.63607.5474 1.02403.0771.38796.0375.7901-.1138 1.15555-.1514.36545-.4078.67781-.7367.89757S14.3956 8 14 8zm0 0V5.5c0-.49445-.1466-.9778-.4213-1.38892-.2747-.41113-.6652-.73156-1.122-.92078-.45681-.18922-.95947-.23873-1.44443-.14226-.48495.09646-.93041.33456-1.28004.68419-.34963.34964-.58773.79509-.68419 1.28005-.09647.48495-.04696.98761.14226 1.44443.18922.45681.50965.84726.92077 1.12196C8.5222 7.85338 9.00555 8 9.5 8zm-7 4h14M5 12c-.53043 0-1.03914-.2107-1.41421-.5858C3.21071 11.0391 3 10.5304 3 10c0-.53043.21071-1.03914.58579-1.41421C3.96086 8.21072 4.46957 8 5 8h14c.5304 0 1.0391.21072 1.4142.58579S21 9.46957 21 10c0 .5304-.2107 1.0391-.5858 1.4142S19.5304 12 19 12M5 12v7c0 .5304.21071 1.0391.58579 1.4142C5.96086 20.7893 6.46957 21 7 21h10c.5304 0 1.0391-.2107 1.4142-.5858S19 19.5304 19 19v-7"/>
</svg>
