<svg xmlns="http://www.w3.org/2000/svg" fill="none" stroke-width="1.5" aria-hidden="true" data-slot="icon" viewBox="0 0 24 24" stroke="currentColor">
  <path stroke-linecap="round" stroke-linejoin="round" d="M20 13V6c0-.53043-.2107-1.03914-.5858-1.41421C19.0391 4.21071 18.5304 4 18 4H6c-.53043 0-1.03914.21071-1.41421.58579C4.21071 4.96086 4 5.46957 4 6v7m16 0v5c0 .5304-.2107 1.0391-.5858 1.4142S18.5304 20 18 20H6c-.53043 0-1.03914-.2107-1.41421-.5858C4.21071 19.0391 4 18.5304 4 18v-5m16 0h-2.586c-.2652.0001-.5195.1055-.707.293l-2.414 2.414c-.1875.1875-.4418.2929-.707.293h-3.172c-.2652-.0001-.51951-.1055-.707-.293l-2.414-2.414c-.18749-.1875-.44181-.2929-.707-.293H4"/>
</svg>
