<svg xmlns="http://www.w3.org/2000/svg" fill="none" viewBox="0 0 24 24">
  <path stroke="#000" stroke-linecap="round" stroke-linejoin="round" stroke-width="2" d="M9.663 17h4.673M12 3v1m6.364 1.636-.707.707M21 12h-1M4 12H3m3.343-5.657-.707-.707m2.828 9.9c-.69913-.6993-1.1752-1.5902-1.36802-2.5601s-.09373-1.9751.28475-2.8887c.37848-.91354 1.01934-1.69436 1.84156-2.24371.82221-.54935 1.78881-.84256 2.77771-.84256s1.9555.29321 2.7777.84256 1.4631 1.33017 1.8416 2.24371c.3784.9136.4775 1.9188.2847 2.8887s-.6689 1.8608-1.368 2.5601l-.548.547c-.3133.3133-.5618.6853-.7313 1.0947s-.2568.8482-.2567 1.2913V19c0 .5304-.2107 1.0391-.5858 1.4142S12.5304 21 12 21s-1.0391-.2107-1.4142-.5858S10 19.5304 10 19v-.531c0-.895-.356-1.754-.988-2.386z"/>
</svg>
