<svg xmlns="http://www.w3.org/2000/svg" fill="none" stroke-width="1.5" aria-hidden="true" data-slot="icon" viewBox="0 0 24 24" stroke="currentColor">
  <path stroke-linecap="round" stroke-linejoin="round" d="M13.828 10.172c-.7501-.74988-1.7673-1.17115-2.828-1.17115-1.06064 0-2.07787.42127-2.82798 1.17115l-4 4c-.38204.369-.68677.8104-.89641 1.2984-.20963.488-.31998 1.0129-.32459 1.544-.00462.5311.09659 1.0578.29771 1.5494.20113.4916.49814.9382.87371 1.3138s.82218.6726 1.31376.8737c.49159.2011 1.01831.3023 1.54942.2977.53112-.0046 1.056-.115 1.54402-.3246.48801-.2096.92939-.5144 1.29838-.8964L10.93 18.727m-.758-4.899c.7501.7499 1.7674 1.1711 2.828 1.1711 1.0607 0 2.0779-.4212 2.828-1.1711l4-4c.7287-.75441 1.1318-1.76482 1.1227-2.81361-.0091-1.04878-.4298-2.05203-1.1714-2.79366-.7416-.74164-1.7449-1.16231-2.7937-1.17143-1.0488-.00911-2.0592.39407-2.8136 1.1227l-1.1 1.1"/>
</svg>
