<svg xmlns="http://www.w3.org/2000/svg" fill="none" stroke-width="1.5" aria-hidden="true" data-slot="icon" viewBox="0 0 24 24" stroke="currentColor">
  <path stroke-linecap="round" stroke-linejoin="round" d="M12 9.33333V12m0 0v2.6667M12 12h2.6667M12 12H9.33333M20 12c0 1.0506-.2069 2.0909-.609 3.0615-.402.9706-.9913 1.8525-1.7341 2.5954-.7429.7428-1.6248 1.3321-2.5954 1.7341-.9706.4021-2.0109.609-3.0615.609s-2.09086-.2069-3.06147-.609c-.9706-.402-1.85252-.9913-2.59538-1.7341-.74287-.7429-1.33215-1.6248-1.73419-2.5954C4.20693 14.0909 4 13.0506 4 12c0-2.12173.84285-4.15656 2.34315-5.65685C7.84344 4.84285 9.87827 4 12 4c2.1217 0 4.1566.84285 5.6569 2.34315C19.1571 7.84344 20 9.87827 20 12"/>
</svg>
