<svg xmlns="http://www.w3.org/2000/svg" fill="none" stroke-width="1.5" aria-hidden="true" data-slot="icon" viewBox="0 0 24 24" stroke="currentColor">
  <path stroke-linecap="round" stroke-linejoin="round" d="M15.1946 15.8217c1.7285.3531 3.5226.1905 5.1594-.4677-.67 1.6673-1.8237 3.096-3.3125 4.1022S13.7969 21.0001 12 21c-2.08963-.0023-4.11338-.7313-5.72435-2.0622-1.61098-1.3309-2.70882-3.1808-3.10534-5.2324-.39653-2.0517-.06703-4.17735.93201-6.01268C5.10135 5.85739 6.7077 4.42673 8.64599 3.646c-.6582 1.63678-.82085 3.4309-.46772 5.15936.35312 1.72844 1.20645 3.31504 2.45393 4.56244 1.2474 1.2475 2.834 2.1008 4.5624 2.4539"/>
</svg>
