<svg xmlns="http://www.w3.org/2000/svg" fill="none" viewBox="0 0 24 24">
  <path stroke="#000" stroke-linecap="round" stroke-linejoin="round" stroke-width="2" d="M3.58579 3.58579C3.21071 3.96086 3 4.46957 3 5v1c0 8.284 6.716 15 15 15h1c.5304 0 1.0391-.2107 1.4142-.5858S21 19.5304 21 19v-3.279c.0001-.21-.066-.4146-.1888-.585-.1227-.1703-.296-.2977-.4952-.364l-4.493-1.498c-.2283-.0759-.4764-.0669-.6986.0253-.2223.0922-.4039.2614-.5114.4767l-1.13 2.257c-2.4485-1.1063-4.40968-3.0675-5.516-5.516l2.257-1.13c.2153-.10755.3845-.2891.4767-.51136.0922-.22225.1012-.4703.0253-.69864L9.228 3.684c-.06629-.19904-.19351-.3722-.36364-.49495C8.69422 3.0663 8.48979 3.00016 8.28 3H5c-.53043 0-1.03914.21071-1.41421.58579"/>
</svg>
