<svg xmlns="http://www.w3.org/2000/svg" fill="none" viewBox="0 0 24 24">
  <path stroke="#000" stroke-linecap="round" stroke-linejoin="round" stroke-width="2" d="M17 17h2c.5304 0 1.0391-.2107 1.4142-.5858S21 15.5304 21 15v-4c0-.5304-.2107-1.03914-.5858-1.41421C20.0391 9.21071 19.5304 9 19 9H5c-.53043 0-1.03914.21071-1.41421.58579C3.21071 9.96086 3 10.4696 3 11v4c0 .5304.21071 1.0391.58579 1.4142C3.96086 16.7893 4.46957 17 5 17h2m2 4h6c.5304 0 1.0391-.2107 1.4142-.5858S17 19.5304 17 19v-4c0-.5304-.2107-1.0391-.5858-1.4142S15.5304 13 15 13H9c-.53043 0-1.03914.2107-1.41421.5858C7.21071 13.9609 7 14.4696 7 15v4c0 .5304.21071 1.0391.58579 1.4142C7.96086 20.7893 8.46957 21 9 21m8-12V5c0-.53043-.2107-1.03914-.5858-1.41421C16.0391 3.21071 15.5304 3 15 3H9c-.53043 0-1.03914.21071-1.41421.58579C7.21071 3.96086 7 4.46957 7 5v4z"/>
</svg>
