<svg xmlns="http://www.w3.org/2000/svg" fill="none" viewBox="0 0 24 24">
  <path stroke="#000" stroke-linecap="round" stroke-linejoin="round" stroke-width="2" d="M11.7716 11.5528c.0694-.1389.1702-.2597.2944-.3528h.001l5.333-4c.1486-.11143.3252-.17928.5102-.19596.1849-.01668.3709.01848.537.10153.1661.08306.3058.21072.4034.3687C18.9483 7.63225 19 7.81429 19 8v8c0 .1857-.0517.3678-.1494.5257-.0976.158-.2373.2857-.4034.3687-.1661.0831-.3521.1182-.537.1016-.185-.0167-.3616-.0846-.5102-.196l-5.334-4c-.1242-.0931-.225-.2139-.2944-.3528-.0695-.1388-.1056-.292-.1056-.4472s.0361-.3084.1056-.4472m-8.00004 0c.06943-.1389.17023-.2597.29443-.3528l5.33399-4c.14857-.11143.32524-.17928.5102-.19596.18492-.01668.37092.01848.53702.10153.1661.08306.3058.21072.4034.3687C10.9483 7.63225 11 7.81429 11 8v8c0 .1857-.0517.3678-.1494.5257-.0976.158-.2373.2857-.4034.3687-.1661.0831-.3521.1182-.53702.1016-.18496-.0167-.36163-.0846-.5102-.196l-5.33399-4c-.1242-.0931-.225-.2139-.29443-.3528-.06943-.1388-.10557-.292-.10557-.4472s.03614-.3084.10557-.4472"/>
</svg>
