<svg xmlns="http://www.w3.org/2000/svg" fill="none" viewBox="0 0 24 24">
  <path stroke="#000" stroke-linecap="round" stroke-linejoin="round" stroke-width="2" d="M12 3v1m0 16v1m9-9h-1M4 12H3m15.364 6.364-.707-.707M6.343 6.343l-.707-.707m12.728 0-.707.707M6.343 17.657l-.707.707M16 12c0 1.0609-.4214 2.0783-1.1716 2.8284C14.0783 15.5786 13.0609 16 12 16s-2.07828-.4214-2.82843-1.1716C8.42143 14.0783 8 13.0609 8 12s.42143-2.07828 1.17157-2.82843C9.92172 8.42143 10.9391 8 12 8s2.0783.42143 2.8284 1.17157C15.5786 9.92172 16 10.9391 16 12"/>
</svg>
