<svg xmlns="http://www.w3.org/2000/svg" fill="none" stroke-width="1.5" aria-hidden="true" data-slot="icon" viewBox="0 0 24 24" stroke="currentColor">
  <path stroke-linecap="round" stroke-linejoin="round" d="M7 7h.01M7 3h5c.512 0 1.024.195 1.414.586l7 7c.3749.3751.5856.8837.5856 1.414s-.2107 1.0389-.5856 1.414l-7 7c-.3751.3749-.8837.5856-1.414.5856s-1.0389-.2107-1.414-.5856l-7-7c-.186-.1855-.33351-.4059-.43408-.6485C3.05136 12.5228 2.99973 12.2627 3 12V7c0-1.06087.42143-2.07828 1.17157-2.82843C4.92172 3.42143 5.93913 3 7 3"/>
</svg>
