<svg xmlns="http://www.w3.org/2000/svg" fill="none" viewBox="0 0 24 24">
  <path stroke="#000" stroke-linecap="round" stroke-linejoin="round" stroke-width="2" d="m16.999 4-3.76-.94c-.1586-.03975-.3215-.0599-.485-.06H8.73599c-.3715.00001-.73565.10349-1.05163.29884-.31599.19535-.57132.47485-.73737.80716l-3.5 7c-.15237.3049-.22428.6437-.2089.9842.01538.3406.11754.6715.29677.9614.17923.29.4296.5293.72732.6953.29773.166.63294.2531.97381.2531H12m4.999-10L17 13l-3.392 5.088c-.397.595-.608 1.293-.608 2.008 0 .499-.405.904-.905.904h-.096c-.5304 0-1.0392-.2107-1.4142-.5858-.3751-.3751-.58581-.8838-.58581-1.4142v-5M16.999 4H19c.5304 0 1.0391.21071 1.4142.58579C20.7893 4.96086 21 5.46957 21 6v6c0 .5304-.2107 1.0391-.5858 1.4142S19.5304 14 19 14h-2.5"/>
</svg>
