<svg xmlns="http://www.w3.org/2000/svg" fill="none" stroke-width="1.5" aria-hidden="true" data-slot="icon" viewBox="0 0 24 24" stroke="currentColor">
  <path stroke-linecap="round" stroke-linejoin="round" d="M14 10h4.764c.3409 0 .6761.0871.9738.2531s.5481.4053.7273.6953c.1793.2899.2814.6208.2968.9614.0154.3405-.0565.6793-.2089.9842l-3.5 7c-.1661.3325-.4216.6121-.7378.8074-.3162.1954-.6805.2988-1.0522.2986h-4.017c-.163 0-.326-.02-.485-.06L7 20m7-10V5c0-.53043-.2107-1.03914-.5858-1.41421C13.0391 3.21071 12.5304 3 12 3h-.095c-.5 0-.905.405-.905.905 0 .714-.211 1.412-.608 2.006L7 11v9m7-10h-2M7 20H5c-.53043 0-1.03914-.2107-1.41421-.5858C3.21071 19.0391 3 18.5304 3 18v-6c0-.5304.21071-1.0391.58579-1.4142C3.96086 10.2107 4.46957 10 5 10h2.5"/>
</svg>
