<svg xmlns="http://www.w3.org/2000/svg" fill="none" stroke-width="1.5" aria-hidden="true" data-slot="icon" viewBox="0 0 24 24" stroke="currentColor">
  <path stroke-linecap="round" stroke-linejoin="round" d="M18 9v3zm0 3v3zm0 0h3zm0 0h-3zm-5-5c0 1.06087-.4214 2.07828-1.1716 2.82843C11.0783 10.5786 10.0609 11 9 11c-1.06087 0-2.07828-.4214-2.82843-1.17157C5.42143 9.07828 5 8.06087 5 7s.42143-2.07828 1.17157-2.82843C6.92172 3.42143 7.93913 3 9 3c1.0609 0 2.0783.42143 2.8284 1.17157C12.5786 4.92172 13 5.93913 13 7M3 20c0-1.5913.63214-3.1174 1.75736-4.2426C5.88258 14.6321 7.4087 14 9 14s3.1174.6321 4.2426 1.7574C14.3679 16.8826 15 18.4087 15 20v1H3z"/>
</svg>
