<svg xmlns="http://www.w3.org/2000/svg" fill="none" viewBox="0 0 24 24">
  <path stroke="#000" stroke-linecap="round" stroke-linejoin="round" stroke-width="2" d="m15 10 4.553-2.276c.1524-.07616.3218-.11212.492-.10445.1702.00766.3356.0587.4806.14826.145.08955.2646.21467.3477.36346.083.1488.1266.31634.1267.48673v6.764c-.0001.1704-.0437.3379-.1267.4867-.0831.1488-.2027.2739-.3477.3635s-.3104.1406-.4806.1483c-.1702.0076-.3396-.0283-.492-.1045L15 14zM5 18h8c.5304 0 1.0391-.2107 1.4142-.5858S15 16.5304 15 16V8c0-.53043-.2107-1.03914-.5858-1.41421C14.0391 6.21071 13.5304 6 13 6H5c-.53043 0-1.03914.21071-1.41421.58579C3.21071 6.96086 3 7.46957 3 8v8c0 .5304.21071 1.0391.58579 1.4142C3.96086 17.7893 4.46957 18 5 18"/>
</svg>
