<svg xmlns="http://www.w3.org/2000/svg" fill="none" stroke-width="1.5" aria-hidden="true" data-slot="icon" viewBox="0 0 24 24" stroke="currentColor">
  <path stroke-linecap="round" stroke-linejoin="round" d="M15.536 8.46401c.4644.46431.8328 1.01556 1.0842 1.62229.2514.6067.3807 1.257.3807 1.9137s-.1293 1.307-.3807 1.9137-.6198 1.158-1.0842 1.6223m2.828-9.89999c.8357.83573 1.4987 1.82788 1.951 2.91982s.6851 2.26227.6851 3.44417-.2328 2.3522-.6851 3.4442c-.4523 1.0919-1.1153 2.0841-1.951 2.9198M5.586 15H4c-.26522 0-.51957-.1054-.70711-.2929C3.10536 14.5196 3 14.2652 3 14v-4c0-.26521.10536-.51956.29289-.7071.18754-.18754.44189-.29289.70711-.29289h1.586l4.707-4.707c.63-.63 1.707-.184 1.707.707V19c0 .891-1.077 1.337-1.707.707z"/>
</svg>
